<svg width="31" height="29" viewBox="0 0 31 29" fill="none" xmlns="http://www.w3.org/2000/svg">
<path d="M28.5526 23.4322C29.1811 23.4325 29.7854 23.6809 30.2403 24.1258C30.6952 24.5707 30.9658 25.1781 30.996 25.8221C31.0262 26.4661 30.8137 27.0974 30.4026 27.585C29.9914 28.0727 29.4132 28.3794 28.7876 28.4417L28.5526 28.4534H2.44737C1.81886 28.453 1.21456 28.2047 0.759685 27.7598C0.304814 27.3148 0.0342435 26.7074 0.00403936 26.0634C-0.0261648 25.4194 0.186313 24.7882 0.597444 24.3005C1.00858 23.8128 1.58684 23.5061 2.21242 23.4439L2.44737 23.4322H28.5526ZM28.5526 11.7161C29.2017 11.7161 29.8242 11.9806 30.2832 12.4514C30.7422 12.9223 31 13.5608 31 14.2267C31 14.8925 30.7422 15.5311 30.2832 16.0019C29.8242 16.4728 29.2017 16.7373 28.5526 16.7373H2.44737C1.79829 16.7373 1.17579 16.4728 0.716818 16.0019C0.257847 15.5311 0 14.8925 0 14.2267C0 13.5608 0.257847 12.9223 0.716818 12.4514C1.17579 11.9806 1.79829 11.7161 2.44737 11.7161H28.5526ZM28.5526 0C29.2017 0 29.8242 0.264508 30.2832 0.735335C30.7422 1.20616 31 1.84474 31 2.51059C31 3.17644 30.7422 3.81502 30.2832 4.28585C29.8242 4.75668 29.2017 5.02118 28.5526 5.02118H2.44737C1.79829 5.02118 1.17579 4.75668 0.716818 4.28585C0.257847 3.81502 0 3.17644 0 2.51059C0 1.84474 0.257847 1.20616 0.716818 0.735335C1.17579 0.264508 1.79829 0 2.44737 0H28.5526Z" fill="black"/>
</svg>
