<svg width="15" height="25" viewBox="0 0 15 25" fill="none" xmlns="http://www.w3.org/2000/svg">
<path d="M3 0H12C12.7956 0 13.5587 0.415882 14.1213 1.15616C14.6839 1.89643 15 2.90046 15 3.94737V21.0526C15 22.0995 14.6839 23.1036 14.1213 23.8438C13.5587 24.5841 12.7956 25 12 25H3C2.20435 25 1.44129 24.5841 0.87868 23.8438C0.316071 23.1036 0 22.0995 0 21.0526V3.94737C0 2.90046 0.316071 1.89643 0.87868 1.15616C1.44129 0.415882 2.20435 0 3 0ZM3 1.31579C2.46957 1.31579 1.96086 1.59304 1.58579 2.08656C1.21071 2.58008 1 3.24943 1 3.94737V21.0526C1 21.7506 1.21071 22.4199 1.58579 22.9134C1.96086 23.407 2.46957 23.6842 3 23.6842H12C12.5304 23.6842 13.0391 23.407 13.4142 22.9134C13.7893 22.4199 14 21.7506 14 21.0526V3.94737C14 3.24943 13.7893 2.58008 13.4142 2.08656C13.0391 1.59304 12.5304 1.31579 12 1.31579H9V10.1316L6 7.36842L3 10.1316V1.31579ZM8 1.31579H4V7.60526L6 5.76316L8 7.60526V1.31579Z" fill="black"/>
</svg>
