<svg width="27" height="23" viewBox="0 0 27 23" fill="none" xmlns="http://www.w3.org/2000/svg">
<path fill-rule="evenodd" clip-rule="evenodd" d="M23.6478 11.0796C24.679 10.0425 25.2518 8.64226 25.2403 7.18691C25.2288 5.73156 24.634 4.34034 23.5866 3.3193C23.0679 2.81373 22.4538 2.41426 21.7793 2.1437C21.1048 1.87313 20.383 1.73677 19.6553 1.7424C18.1855 1.75378 16.7805 2.34282 15.7493 3.37995C15.4693 3.65721 15.1135 3.99752 14.6818 4.4009L13.4816 5.52004L12.2814 4.4009C11.8487 3.99656 11.4924 3.65625 11.2124 3.37995C10.1731 2.35087 8.76354 1.77273 7.29377 1.77273C5.82401 1.77273 4.41444 2.35087 3.37516 3.37995C1.23429 5.50126 1.2095 8.93089 3.29641 11.0623L13.4816 21.1476L23.6478 11.0796ZM2.13701 2.15539C2.81414 1.48473 3.61807 0.952715 4.50288 0.589744C5.38768 0.226772 6.33604 0.0399508 7.29377 0.0399508C8.25151 0.0399508 9.19986 0.226772 10.0847 0.589744C10.9695 0.952715 11.7734 1.48473 12.4505 2.15539C12.716 2.41917 13.0596 2.74745 13.4816 3.14024C13.9016 2.74745 14.2453 2.41869 14.5127 2.15395C15.8697 0.789557 17.7185 0.0148347 19.6524 0.00021083C21.5863 -0.014413 23.4468 0.732259 24.8247 2.07597C26.2026 3.41968 26.985 5.25036 26.9998 7.16527C27.0146 9.08019 26.2605 10.9225 24.9035 12.2869L14.5127 22.5772C14.2392 22.8479 13.8683 23 13.4816 23C13.0949 23 12.724 22.8479 12.4505 22.5772L2.0568 12.2854C0.72392 10.9243 -0.0147832 9.09859 0.000224273 7.20269C0.0152318 5.30679 0.782746 3.49281 2.13701 2.1525V2.15539Z" fill="black"/>
</svg>
