<svg width="25" height="25" viewBox="0 0 25 25" fill="none" xmlns="http://www.w3.org/2000/svg">
<g clip-path="url(#clip0_220_3)">
<path d="M0.0265625 13.0219C0.303125 19.6711 5.78359 25 12.5 25C19.2164 25 24.6969 19.6711 24.9734 13.0219C24.9898 12.98 24.9988 12.9356 25 12.8906C25 12.8625 24.9898 12.8383 24.9844 12.8125C24.9867 12.7078 25 12.6055 25 12.5C25 5.60781 19.3922 0 12.5 0C5.60781 0 0 5.60781 0 12.5C0 12.6055 0.0132812 12.7078 0.015625 12.8125C0.0101562 12.8383 0 12.8625 0 12.8906C0 12.9375 0.0117188 12.9805 0.0265625 13.0219ZM19.4695 17.7672C18.4078 17.3269 17.3047 16.9943 16.1766 16.7742C16.3 15.6391 16.3727 14.4602 16.3953 13.282H20.2859C20.2148 14.8867 19.9297 16.4016 19.4695 17.7672ZM21.0664 13.2812H24.1789C24.0406 15.4082 23.3209 17.4563 22.0984 19.2023C21.4912 18.7743 20.8491 18.398 20.1789 18.0773C20.6828 16.6172 20.993 14.9969 21.0664 13.2812ZM9.67891 17.4109C10.6121 17.2637 11.5553 17.189 12.5 17.1875C13.4563 17.1875 14.4008 17.2672 15.3203 17.4109C14.7781 21.5789 13.5938 24.2188 12.5 24.2188C11.4062 24.2188 10.2219 21.5789 9.67891 17.4109ZM10.8656 23.9562C8.71641 23.2672 6.89844 21.2445 5.80156 18.5C6.80649 18.0804 7.85071 17.7619 8.91875 17.5492C9.27734 20.2805 9.93281 22.6602 10.8656 23.9562ZM9.58906 8.36641C10.5521 8.5165 11.5253 8.5925 12.5 8.59375C13.4747 8.5925 14.4479 8.5165 15.4109 8.36641C15.5453 9.63203 15.625 11.0133 15.625 12.5H9.375C9.375 11.0133 9.45469 9.63203 9.58906 8.36641ZM15.6133 13.2812C15.5946 14.4011 15.5269 15.5197 15.4102 16.6336C14.4473 16.4835 13.4744 16.4075 12.5 16.4062C11.5253 16.4075 10.5521 16.4835 9.58906 16.6336C9.47235 15.5197 9.40457 14.4011 9.38594 13.2812H15.6133ZM16.082 17.5492C17.1789 17.7695 18.225 18.0898 19.1992 18.5C18.1023 21.2445 16.2844 23.2672 14.1352 23.9562C15.0672 22.6602 15.7227 20.2805 16.082 17.5492ZM16.4062 12.5C16.4062 11.0656 16.3266 9.6125 16.1766 8.22656C17.3328 7.99844 18.4391 7.66406 19.4695 7.23359C20.0039 8.81875 20.3125 10.6047 20.3125 12.5H16.4062ZM16.082 7.45078C15.7227 4.71953 15.068 2.33906 14.1344 1.04375C16.2836 1.73281 18.1016 3.75547 19.1984 6.5C18.1941 6.92053 17.1501 7.23906 16.082 7.45078ZM15.3211 7.58906C14.4008 7.73281 13.4563 7.8125 12.5 7.8125C11.5437 7.8125 10.5992 7.73281 9.67891 7.58906C10.2219 3.42109 11.4062 0.78125 12.5 0.78125C13.5938 0.78125 14.7781 3.42109 15.3211 7.58906ZM8.91797 7.45078C7.84993 7.2381 6.80571 6.9196 5.80078 6.5C6.89766 3.75547 8.71562 1.73281 10.8648 1.04375C9.93281 2.33984 9.27734 4.71953 8.91797 7.45078ZM8.82344 8.22656C8.67037 9.6459 8.5937 11.0724 8.59375 12.5H4.6875C4.6875 10.6047 4.99609 8.81875 5.53047 7.23281C6.56094 7.66406 7.66719 7.99766 8.82344 8.22656ZM8.60469 13.2812C8.62734 14.4594 8.7 15.6383 8.82344 16.7742C7.66719 17.0023 6.56094 17.3367 5.53047 17.7672C5.07031 16.4016 4.78516 14.8867 4.71406 13.2812H8.60469ZM4.82031 18.0773C4.1504 18.398 3.50856 18.7744 2.90156 19.2023C1.67906 17.4563 0.959418 15.4082 0.821094 13.2812H3.93359C4.00703 14.9969 4.31719 16.6172 4.82031 18.0773ZM3.36953 19.8281C3.91607 19.4427 4.49266 19.1018 5.09375 18.8086C5.87812 20.75 7.00703 22.3617 8.36406 23.4516C6.40633 22.7099 4.68211 21.459 3.36953 19.8281ZM16.6359 23.4508C17.9937 22.3617 19.1219 20.7492 19.9062 18.8078C20.5234 19.1078 21.0953 19.4531 21.6305 19.8273C20.3184 21.4588 18.594 22.7098 16.6359 23.4508ZM21.0938 12.5C21.0938 10.4945 20.7594 8.60391 20.1797 6.92266C20.8672 6.59297 21.5063 6.21406 22.0992 5.79766C23.4795 7.75997 24.2198 10.1008 24.2188 12.5H21.0938ZM21.6313 5.17188C21.0961 5.54609 20.5242 5.89141 19.907 6.19141C19.1227 4.25 17.9937 2.6375 16.6367 1.54844C18.5943 2.2904 20.3184 3.54123 21.6313 5.17188ZM8.36406 1.54922C7.00625 2.63828 5.87812 4.25078 5.09375 6.19219C4.49264 5.89876 3.91605 5.55756 3.36953 5.17188C4.68194 3.54097 6.40624 2.2903 8.36406 1.54922ZM2.90156 5.79766C3.50856 6.22565 4.1504 6.60197 4.82031 6.92266C4.20995 8.7186 3.90109 10.6032 3.90625 12.5H0.78125C0.78125 10.0078 1.56953 7.69922 2.90156 5.79766Z" fill="black"/>
</g>
<defs>
<clipPath id="clip0_220_3">
<rect width="25" height="25" fill="white"/>
</clipPath>
</defs>
</svg>
